# This file uses centimeters as units for non-parametric coordinates.

mtllib humanoid.mtl
g default
v 1.416586 11.000000 2.480000
v 1.416588 6.010000 2.480000
v 1.416588 6.010000 -2.480000
v 1.416588 11.000000 -2.480000
v -1.060412 11.000000 2.480000
v -1.060412 6.010000 2.480000
v -1.060412 11.000000 -2.480000
v -1.060412 6.010000 -2.480000
v 1.636588 14.400000 1.290000
v 1.636588 12.000000 1.290000
v 1.636588 12.000000 -1.190000
v 1.636588 14.400000 -1.190000
v -1.232412 14.400000 1.290000
v -1.232412 12.000000 1.290000
v -1.232412 14.400000 -1.190000
v -1.232412 12.000000 -1.190000
v 1.316588 5.010000 2.470000
v 1.316588 -0.000000 2.470000
v 1.316588 0.000000 0.486000
v 1.316588 5.010000 0.486000
v -0.941412 5.010000 2.470000
v -0.941412 -0.000000 2.470000
v -0.941412 5.010000 0.486000
v -0.941412 0.000000 0.486000
v 1.396588 11.000000 3.960000
v 1.396588 6.010000 3.960000
v 1.396588 6.010000 2.480000
v 1.396588 11.000000 2.480000
v -1.086412 11.000000 3.960000
v -1.086412 6.010000 3.960000
v -1.086412 11.000000 2.480000
v -1.086412 6.010000 2.480000
v 1.436588 11.000000 -2.460000
v 1.436588 6.010000 -2.460000
v 1.436588 6.010000 -3.950000
v 1.436588 11.000000 -3.950000
v -1.038412 11.000000 -2.460000
v -1.038412 6.010000 -2.460000
v -1.038412 11.000000 -3.950000
v -1.038412 6.010000 -3.950000
v 0.656588 12.000000 0.498000
v 0.656588 11.000000 0.498000
v 0.656588 11.000000 -0.493000
v 0.656588 12.000000 -0.493000
v -0.333412 12.000000 0.498000
v -0.333412 11.000000 0.498000
v -0.333412 12.000000 -0.493000
v -0.333412 11.000000 -0.493000
v 1.416588 6.010000 2.500000
v 1.416588 5.010000 2.500000
v 1.416588 5.010000 -2.450000
v 1.416588 6.010000 -2.450000
v -1.062412 6.010000 2.500000
v -1.062412 5.010000 2.500000
v -1.062412 6.010000 -2.450000
v -1.062412 5.010000 -2.450000
v 1.436588 5.010000 -0.465000
v 1.436586 0.000000 -0.465000
v 1.436588 0.000000 -2.447209
v 1.436588 5.010000 -2.450000
v -1.038412 5.010000 -0.465000
v -1.038412 0.000000 -0.465000
v -1.038412 5.010000 -2.450000
v -1.038412 0.000000 -2.450000
vn 1.000000 0.000000 0.000000
vn 1.000000 0.000000 0.000000
vn 1.000000 0.000000 0.000000
vn 1.000000 -0.000000 0.000000
vn 1.000000 -0.000000 0.000000
vn 1.000000 -0.000000 0.000000
vn 0.000000 -0.000000 1.000000
vn 0.000000 -0.000000 1.000000
vn 0.000000 -0.000000 1.000000
vn 0.000000 -0.000000 1.000000
vn 0.000000 -0.000000 1.000000
vn 0.000000 -0.000000 1.000000
vn -1.000000 0.000000 0.000000
vn -1.000000 0.000000 0.000000
vn -1.000000 0.000000 0.000000
vn -1.000000 0.000000 0.000000
vn -1.000000 0.000000 0.000000
vn -1.000000 0.000000 0.000000
vn 0.000000 0.000000 -1.000000
vn 0.000000 0.000000 -1.000000
vn 0.000000 0.000000 -1.000000
vn 0.000000 0.000000 -1.000000
vn 0.000000 0.000000 -1.000000
vn 0.000000 0.000000 -1.000000
vn 0.000000 1.000000 0.000000
vn 0.000000 1.000000 0.000000
vn 0.000000 1.000000 0.000000
vn 0.000000 1.000000 0.000000
vn 0.000000 1.000000 0.000000
vn 0.000000 1.000000 0.000000
vn 0.000000 -1.000000 -0.000000
vn 0.000000 -1.000000 -0.000000
vn 0.000000 -1.000000 -0.000000
vn 0.000000 -1.000000 -0.000000
vn 0.000000 -1.000000 -0.000000
vn 0.000000 -1.000000 -0.000000
vn 1.000000 0.000000 0.000000
vn 1.000000 0.000000 0.000000
vn 1.000000 0.000000 0.000000
vn 1.000000 0.000000 0.000000
vn 1.000000 0.000000 0.000000
vn 1.000000 0.000000 0.000000
vn 0.000000 -0.000000 1.000000
vn 0.000000 -0.000000 1.000000
vn 0.000000 -0.000000 1.000000
vn 0.000000 -0.000000 1.000000
vn 0.000000 -0.000000 1.000000
vn 0.000000 -0.000000 1.000000
vn -1.000000 0.000000 0.000000
vn -1.000000 0.000000 0.000000
vn -1.000000 0.000000 0.000000
vn -1.000000 0.000000 0.000000
vn -1.000000 0.000000 0.000000
vn -1.000000 0.000000 0.000000
vn 0.000000 0.000000 -1.000000
vn 0.000000 0.000000 -1.000000
vn 0.000000 0.000000 -1.000000
vn 0.000000 0.000000 -1.000000
vn 0.000000 0.000000 -1.000000
vn 0.000000 0.000000 -1.000000
vn 0.000000 1.000000 0.000000
vn 0.000000 1.000000 0.000000
vn 0.000000 1.000000 0.000000
vn 0.000000 1.000000 0.000000
vn 0.000000 1.000000 0.000000
vn 0.000000 1.000000 0.000000
vn 0.000000 -1.000000 -0.000000
vn 0.000000 -1.000000 -0.000000
vn 0.000000 -1.000000 -0.000000
vn 0.000000 -1.000000 -0.000000
vn 0.000000 -1.000000 -0.000000
vn 0.000000 -1.000000 -0.000000
vn 1.000000 0.000000 0.000000
vn 1.000000 0.000000 0.000000
vn 1.000000 0.000000 0.000000
vn 1.000000 0.000000 0.000000
vn 1.000000 0.000000 0.000000
vn 1.000000 0.000000 0.000000
vn 0.000000 -0.000000 1.000000
vn 0.000000 -0.000000 1.000000
vn 0.000000 -0.000000 1.000000
vn 0.000000 -0.000000 1.000000
vn 0.000000 -0.000000 1.000000
vn 0.000000 -0.000000 1.000000
vn -1.000000 0.000000 0.000000
vn -1.000000 0.000000 0.000000
vn -1.000000 0.000000 0.000000
vn -1.000000 0.000000 0.000000
vn -1.000000 0.000000 0.000000
vn -1.000000 0.000000 0.000000
vn 0.000000 0.000000 -1.000000
vn 0.000000 0.000000 -1.000000
vn 0.000000 0.000000 -1.000000
vn 0.000000 0.000000 -1.000000
vn 0.000000 0.000000 -1.000000
vn 0.000000 0.000000 -1.000000
vn 0.000000 1.000000 0.000000
vn 0.000000 1.000000 0.000000
vn 0.000000 1.000000 0.000000
vn 0.000000 1.000000 0.000000
vn 0.000000 1.000000 0.000000
vn 0.000000 1.000000 0.000000
vn 0.000000 -1.000000 -0.000000
vn 0.000000 -1.000000 -0.000000
vn 0.000000 -1.000000 -0.000000
vn 0.000000 -1.000000 -0.000000
vn 0.000000 -1.000000 -0.000000
vn 0.000000 -1.000000 -0.000000
vn 1.000000 0.000000 0.000000
vn 1.000000 0.000000 0.000000
vn 1.000000 0.000000 0.000000
vn 1.000000 0.000000 0.000000
vn 1.000000 0.000000 0.000000
vn 1.000000 0.000000 0.000000
vn 0.000000 -0.000000 1.000000
vn 0.000000 -0.000000 1.000000
vn 0.000000 -0.000000 1.000000
vn 0.000000 -0.000000 1.000000
vn 0.000000 -0.000000 1.000000
vn 0.000000 -0.000000 1.000000
vn -1.000000 0.000000 0.000000
vn -1.000000 0.000000 0.000000
vn -1.000000 0.000000 0.000000
vn -1.000000 0.000000 0.000000
vn -1.000000 0.000000 0.000000
vn -1.000000 0.000000 0.000000
vn 0.000000 0.000000 -1.000000
vn 0.000000 0.000000 -1.000000
vn 0.000000 0.000000 -1.000000
vn 0.000000 0.000000 -1.000000
vn 0.000000 0.000000 -1.000000
vn 0.000000 0.000000 -1.000000
vn 0.000000 1.000000 0.000000
vn 0.000000 1.000000 0.000000
vn 0.000000 1.000000 0.000000
vn 0.000000 1.000000 0.000000
vn 0.000000 1.000000 0.000000
vn 0.000000 1.000000 0.000000
vn 0.000000 -1.000000 -0.000000
vn 0.000000 -1.000000 -0.000000
vn 0.000000 -1.000000 -0.000000
vn 0.000000 -1.000000 -0.000000
vn 0.000000 -1.000000 -0.000000
vn 0.000000 -1.000000 -0.000000
vn 1.000000 0.000000 0.000000
vn 1.000000 0.000000 0.000000
vn 1.000000 0.000000 0.000000
vn 1.000000 0.000000 0.000000
vn 1.000000 0.000000 0.000000
vn 1.000000 0.000000 0.000000
vn 0.000000 -0.000000 1.000000
vn 0.000000 -0.000000 1.000000
vn 0.000000 -0.000000 1.000000
vn 0.000000 -0.000000 1.000000
vn 0.000000 -0.000000 1.000000
vn 0.000000 -0.000000 1.000000
vn -1.000000 0.000000 0.000000
vn -1.000000 0.000000 0.000000
vn -1.000000 0.000000 0.000000
vn -1.000000 0.000000 0.000000
vn -1.000000 0.000000 0.000000
vn -1.000000 0.000000 0.000000
vn 0.000000 0.000000 -1.000000
vn 0.000000 0.000000 -1.000000
vn 0.000000 0.000000 -1.000000
vn 0.000000 0.000000 -1.000000
vn 0.000000 0.000000 -1.000000
vn 0.000000 0.000000 -1.000000
vn 0.000000 1.000000 0.000000
vn 0.000000 1.000000 0.000000
vn 0.000000 1.000000 0.000000
vn 0.000000 1.000000 0.000000
vn 0.000000 1.000000 0.000000
vn 0.000000 1.000000 0.000000
vn 0.000000 -1.000000 -0.000000
vn 0.000000 -1.000000 -0.000000
vn 0.000000 -1.000000 -0.000000
vn 0.000000 -1.000000 -0.000000
vn 0.000000 -1.000000 -0.000000
vn 0.000000 -1.000000 -0.000000
vn 1.000000 0.000000 0.000000
vn 1.000000 0.000000 0.000000
vn 1.000000 0.000000 0.000000
vn 1.000000 0.000000 0.000000
vn 1.000000 0.000000 0.000000
vn 1.000000 0.000000 0.000000
vn 0.000000 -0.000000 1.000000
vn 0.000000 -0.000000 1.000000
vn 0.000000 -0.000000 1.000000
vn 0.000000 -0.000000 1.000000
vn 0.000000 -0.000000 1.000000
vn 0.000000 -0.000000 1.000000
vn -1.000000 0.000000 0.000000
vn -1.000000 0.000000 0.000000
vn -1.000000 0.000000 0.000000
vn -1.000000 0.000000 0.000000
vn -1.000000 0.000000 0.000000
vn -1.000000 0.000000 0.000000
vn 0.000000 0.000000 -1.000000
vn 0.000000 0.000000 -1.000000
vn 0.000000 0.000000 -1.000000
vn 0.000000 0.000000 -1.000000
vn 0.000000 0.000000 -1.000000
vn 0.000000 0.000000 -1.000000
vn 0.000000 1.000000 0.000000
vn 0.000000 1.000000 0.000000
vn 0.000000 1.000000 0.000000
vn 0.000000 1.000000 0.000000
vn 0.000000 1.000000 0.000000
vn 0.000000 1.000000 0.000000
vn 0.000000 -1.000000 -0.000000
vn 0.000000 -1.000000 -0.000000
vn 0.000000 -1.000000 -0.000000
vn 0.000000 -1.000000 -0.000000
vn 0.000000 -1.000000 -0.000000
vn 0.000000 -1.000000 -0.000000
vn 1.000000 0.000000 0.000000
vn 1.000000 0.000000 0.000000
vn 1.000000 0.000000 0.000000
vn 1.000000 0.000000 0.000000
vn 1.000000 0.000000 0.000000
vn 1.000000 0.000000 0.000000
vn 0.000000 -0.000000 1.000000
vn 0.000000 -0.000000 1.000000
vn 0.000000 -0.000000 1.000000
vn 0.000000 -0.000000 1.000000
vn 0.000000 -0.000000 1.000000
vn 0.000000 -0.000000 1.000000
vn -1.000000 0.000000 0.000000
vn -1.000000 0.000000 0.000000
vn -1.000000 0.000000 0.000000
vn -1.000000 0.000000 0.000000
vn -1.000000 0.000000 0.000000
vn -1.000000 0.000000 0.000000
vn 0.000000 0.000000 -1.000000
vn 0.000000 0.000000 -1.000000
vn 0.000000 0.000000 -1.000000
vn 0.000000 0.000000 -1.000000
vn 0.000000 0.000000 -1.000000
vn 0.000000 0.000000 -1.000000
vn 0.000000 1.000000 0.000000
vn 0.000000 1.000000 0.000000
vn 0.000000 1.000000 0.000000
vn 0.000000 1.000000 0.000000
vn 0.000000 1.000000 0.000000
vn 0.000000 1.000000 0.000000
vn 0.000000 -1.000000 -0.000000
vn 0.000000 -1.000000 -0.000000
vn 0.000000 -1.000000 -0.000000
vn 0.000000 -1.000000 -0.000000
vn 0.000000 -1.000000 -0.000000
vn 0.000000 -1.000000 -0.000000
vn 1.000000 -0.000000 0.000001
vn 1.000000 -0.000000 0.000001
vn 1.000000 -0.000000 0.000001
vn 1.000000 0.000000 0.000000
vn 1.000000 0.000000 0.000000
vn 1.000000 0.000000 0.000000
vn 0.000000 -0.000000 1.000000
vn 0.000000 -0.000000 1.000000
vn 0.000000 -0.000000 1.000000
vn 0.000000 0.000000 1.000000
vn 0.000000 0.000000 1.000000
vn 0.000000 0.000000 1.000000
vn -1.000000 0.000000 0.000000
vn -1.000000 0.000000 0.000000
vn -1.000000 0.000000 0.000000
vn -1.000000 0.000000 0.000000
vn -1.000000 0.000000 0.000000
vn -1.000000 0.000000 0.000000
vn 0.001128 -0.000557 -0.999999
vn 0.001128 -0.000557 -0.999999
vn 0.001128 -0.000557 -0.999999
vn 0.000000 0.000000 -1.000000
vn 0.000000 0.000000 -1.000000
vn 0.000000 0.000000 -1.000000
vn 0.000000 1.000000 0.000000
vn 0.000000 1.000000 0.000000
vn 0.000000 1.000000 0.000000
vn 0.000000 1.000000 0.000000
vn 0.000000 1.000000 0.000000
vn 0.000000 1.000000 0.000000
vn 0.000000 -1.000000 -0.000000
vn 0.000000 -1.000000 -0.000000
vn 0.000000 -1.000000 -0.000000
vn 0.000000 -1.000000 -0.000000
vn 0.000000 -1.000000 -0.000000
vn 0.000000 -1.000000 -0.000000
s off
g humanoid_tri:Group001
usemtl initialShadingGroup
f 1//1 2//2 3//3
f 1//4 3//5 4//6
f 5//7 6//8 2//9
f 5//10 2//11 1//12
f 7//13 8//14 6//15
f 7//16 6//17 5//18
f 4//19 3//20 8//21
f 4//22 8//23 7//24
f 7//25 5//26 1//27
f 7//28 1//29 4//30
f 2//31 6//32 8//33
f 2//34 8//35 3//36
f 9//37 10//38 11//39
f 9//40 11//41 12//42
f 13//43 14//44 10//45
f 13//46 10//47 9//48
f 15//49 16//50 14//51
f 15//52 14//53 13//54
f 12//55 11//56 16//57
f 12//58 16//59 15//60
f 15//61 13//62 9//63
f 15//64 9//65 12//66
f 10//67 14//68 16//69
f 10//70 16//71 11//72
f 17//73 18//74 19//75
f 17//76 19//77 20//78
f 21//79 22//80 18//81
f 21//82 18//83 17//84
f 23//85 24//86 22//87
f 23//88 22//89 21//90
f 20//91 19//92 24//93
f 20//94 24//95 23//96
f 23//97 21//98 17//99
f 23//100 17//101 20//102
f 18//103 22//104 24//105
f 18//106 24//107 19//108
f 25//109 26//110 27//111
f 25//112 27//113 28//114
f 29//115 30//116 26//117
f 29//118 26//119 25//120
f 31//121 32//122 30//123
f 31//124 30//125 29//126
f 28//127 27//128 32//129
f 28//130 32//131 31//132
f 31//133 29//134 25//135
f 31//136 25//137 28//138
f 26//139 30//140 32//141
f 26//142 32//143 27//144
f 33//145 34//146 35//147
f 33//148 35//149 36//150
f 37//151 38//152 34//153
f 37//154 34//155 33//156
f 39//157 40//158 38//159
f 39//160 38//161 37//162
f 36//163 35//164 40//165
f 36//166 40//167 39//168
f 39//169 37//170 33//171
f 39//172 33//173 36//174
f 34//175 38//176 40//177
f 34//178 40//179 35//180
f 41//181 42//182 43//183
f 41//184 43//185 44//186
f 45//187 46//188 42//189
f 45//190 42//191 41//192
f 47//193 48//194 46//195
f 47//196 46//197 45//198
f 44//199 43//200 48//201
f 44//202 48//203 47//204
f 47//205 45//206 41//207
f 47//208 41//209 44//210
f 42//211 46//212 48//213
f 42//214 48//215 43//216
f 49//217 50//218 51//219
f 49//220 51//221 52//222
f 53//223 54//224 50//225
f 53//226 50//227 49//228
f 55//229 56//230 54//231
f 55//232 54//233 53//234
f 52//235 51//236 56//237
f 52//238 56//239 55//240
f 55//241 53//242 49//243
f 55//244 49//245 52//246
f 50//247 54//248 56//249
f 50//250 56//251 51//252
f 57//253 58//254 59//255
f 57//256 59//257 60//258
f 61//259 62//260 58//261
f 61//262 58//263 57//264
f 63//265 64//266 62//267
f 63//268 62//269 61//270
f 60//271 59//272 64//273
f 60//274 64//275 63//276
f 63//277 61//278 57//279
f 63//280 57//281 60//282
f 58//283 62//284 64//285
f 59//286 58//287 64//288
